<svg width="41" height="40" viewBox="0 0 41 40" fill="none" xmlns="http://www.w3.org/2000/svg">
<path fill-rule="evenodd" clip-rule="evenodd" d="M23.9966 4.40747C25.3844 3.01977 27.6344 3.01977 29.0222 4.40747C30.41 5.79527 30.41 8.0453 29.0222 9.4331L20.5613 17.894C18.1321 14.6384 18.396 10.0082 21.353 7.0512L23.9966 4.40747Z" fill="#4F9E91"/>
<path fill-rule="evenodd" clip-rule="evenodd" d="M36.0921 23.4967C37.4801 24.8844 37.4801 27.1345 36.0921 28.5222C34.7051 29.91 32.4547 29.91 31.0669 28.5222L22.606 20.0614C25.8616 17.6322 30.4918 17.896 33.4488 20.853L36.0921 23.4967Z" fill="#EBE1C5"/>
<path fill-rule="evenodd" clip-rule="evenodd" d="M17.0031 35.5924C15.6154 36.9802 13.3653 36.9802 11.9776 35.5924C10.5898 34.2046 10.5898 31.9546 11.9776 30.5668L20.4384 22.106C22.8676 25.3616 22.6038 29.9918 19.6468 32.9487L17.0031 35.5924Z" fill="#EBCC6E"/>
<path fill-rule="evenodd" clip-rule="evenodd" d="M4.90755 16.5032C3.51975 15.1154 3.51975 12.8654 4.90755 11.4776C6.29535 10.0898 8.54535 10.0898 9.93315 11.4776L18.394 19.9385C15.1384 22.3677 10.5082 22.1038 7.55125 19.1469L4.90755 16.5032Z" fill="#ED834E"/>
<path fill-rule="evenodd" clip-rule="evenodd" d="M22.106 34.5562C24.1523 32.281 25.1034 29.3697 24.9591 26.5033L29.0225 30.5667C29.0326 30.5768 29.0428 30.5869 29.053 30.597V33.498C29.053 35.4606 27.462 37.0516 25.4994 37.0516C23.9053 37.0516 22.5564 36.002 22.106 34.5562Z" fill="#ED834E"/>
<path fill-rule="evenodd" clip-rule="evenodd" d="M5.94364 21.6058C8.21874 23.6522 11.13 24.6033 13.9964 24.459L9.93314 28.5224C9.92294 28.5325 9.91284 28.5427 9.90284 28.5528H7.00184C5.03924 28.5529 3.44824 26.9618 3.44824 24.9992C3.44824 23.4052 4.49784 22.0562 5.94364 21.6058Z" fill="#4F9E91"/>
<path fill-rule="evenodd" clip-rule="evenodd" d="M35.056 18.3942C32.7811 16.3478 29.8698 15.3967 27.0034 15.5409L31.0667 11.4776C31.0769 11.4675 31.0869 11.4573 31.097 11.4471H33.9981C35.961 11.4471 37.552 13.0382 37.552 15.0008C37.552 16.5949 36.502 17.9438 35.056 18.3942Z" fill="#EBCC6E"/>
<path fill-rule="evenodd" clip-rule="evenodd" d="M18.894 5.44368C16.8476 7.7188 15.8966 10.6301 16.0408 13.4966L11.9775 9.4332C11.9673 9.4231 11.9572 9.413 11.947 9.4029V6.50188C11.947 4.53928 13.538 2.94818 15.5006 2.94818C17.0947 2.94818 18.4436 3.99788 18.894 5.44368Z" fill="#EBE1C5"/>
<path fill-rule="evenodd" clip-rule="evenodd" d="M15.5008 0.0570068C11.9414 0.0570068 9.05593 2.94251 9.05593 6.50191V7.7554C6.91453 7.1959 4.54133 7.7551 2.86323 9.4332C0.346328 11.9501 0.346328 16.0308 2.86323 18.5477L3.74953 19.434C1.83973 20.5526 0.557129 22.6261 0.557129 24.9992C0.557129 28.5586 3.44263 31.4441 7.00203 31.4441H8.25543C7.69593 33.5855 8.25513 35.9587 9.93323 37.6367C12.4501 40.1536 16.5308 40.1536 19.0477 37.6367L21.6913 34.9931C24.0234 32.661 25.1126 29.5566 24.9589 26.5032L29.0224 30.5666C31.5393 33.0835 35.6201 33.0835 38.1371 30.5666C40.6541 28.0497 40.6541 23.969 38.1371 21.4522L37.2511 20.566C39.1601 19.4474 40.4431 17.3739 40.4431 15.0008C40.4431 11.4414 37.5571 8.5559 33.9981 8.5559H32.7446C33.3042 6.41441 32.7449 4.04121 31.0668 2.36311C28.55 -0.153793 24.4693 -0.153793 21.9524 2.36311L19.3087 5.00681C16.9766 7.3389 15.8874 10.4432 16.0411 13.4966L11.9777 9.4332C11.9675 9.4231 11.9574 9.413 11.9472 9.4029V6.50191C11.9472 4.53931 13.5382 2.94831 15.5008 2.94831C17.0949 2.94831 18.4438 3.99791 18.8942 5.44371C19.0277 5.29531 19.1659 5.14961 19.3087 5.00681L21.066 3.24941C19.9474 1.33961 17.8739 0.0570068 15.5008 0.0570068ZM31.0971 11.4472C31.087 11.4573 31.077 11.4675 31.0668 11.4776L27.0035 15.5409C29.87 15.3967 32.7812 16.3477 35.0561 18.3942C36.5021 17.9438 37.5521 16.5948 37.5521 15.0008C37.5521 13.0382 35.9611 11.4472 33.9981 11.4472H31.0971ZM9.90283 28.5528C9.91293 28.5426 9.92303 28.5324 9.93323 28.5223L13.9965 24.4589C11.1301 24.6032 8.21893 23.6521 5.94383 21.6058C4.49803 22.0562 3.44833 23.4051 3.44833 24.9992C3.44833 26.9618 5.03943 28.5528 7.00203 28.5528H9.90283ZM25.4993 39.943C23.1261 39.943 21.0526 38.6603 19.934 36.7505L21.6913 34.9931C21.8342 34.8503 21.9723 34.7046 22.1058 34.5562C22.5562 36.002 23.9051 37.0517 25.4993 37.0517C27.4619 37.0517 29.0529 35.4607 29.0529 33.4981V30.5971C29.8857 31.419 30.8867 31.9682 31.9442 32.2445V33.4981C31.9442 37.0575 29.0587 39.943 25.4993 39.943ZM29.0224 4.40751C27.6346 3.01981 25.3846 3.01981 23.9968 4.40751L21.3531 7.0512C18.3962 10.0082 18.1323 14.6384 20.5615 17.894L29.0224 9.4331C30.4102 8.0453 30.4102 5.79531 29.0224 4.40751ZM36.0921 28.5222C37.4801 27.1344 37.4801 24.8844 36.0921 23.4966L33.4487 20.8529C30.4918 17.896 25.8615 17.6321 22.6059 20.0613L31.0668 28.5222C32.4546 29.91 34.7051 29.91 36.0921 28.5222ZM17.0032 35.5923C15.6154 36.9801 13.3654 36.9801 11.9776 35.5923C10.5899 34.2045 10.5899 31.9545 11.9776 30.5667L20.4385 22.1058C22.8677 25.3614 22.6038 29.9917 19.6469 32.9486L17.0032 35.5923ZM4.90763 11.4776C3.51993 12.8654 3.51993 15.1154 4.90763 16.5032L7.55133 19.1469C10.5083 22.1038 15.1385 22.3677 18.3941 19.9385L9.93323 11.4776C8.54543 10.0899 6.29543 10.0899 4.90763 11.4776Z" fill="#3D3A2C"/>
</svg>
