<svg width="24" height="25" viewBox="0 0 24 25" fill="none" xmlns="http://www.w3.org/2000/svg">
<path d="M14.74 9.5L14.394 18.5M9.606 18.5L9.26 9.5M19.228 6.29C19.57 6.342 19.91 6.397 20.25 6.456M19.228 6.29L18.16 20.173C18.1164 20.7382 17.8611 21.2662 17.445 21.6512C17.029 22.0363 16.4829 22.2502 15.916 22.25H8.084C7.5171 22.2502 6.97102 22.0363 6.55498 21.6512C6.13894 21.2662 5.88359 20.7382 5.84 20.173L4.772 6.29M19.228 6.29C18.0739 6.11552 16.9138 5.9831 15.75 5.893M4.772 6.29C4.43 6.341 4.09 6.396 3.75 6.455M4.772 6.29C5.92613 6.11552 7.08623 5.9831 8.25 5.893M15.75 5.893V4.977C15.75 3.797 14.84 2.813 13.66 2.776C12.5536 2.74064 11.4464 2.74064 10.34 2.776C9.16 2.813 8.25 3.798 8.25 4.977V5.893M15.75 5.893C13.2537 5.70008 10.7463 5.70008 8.25 5.893" stroke="#56635A" stroke-width="1.5" stroke-linecap="round" stroke-linejoin="round"/>
</svg>
